<svg id="visual" viewBox="0 0 675 375" width="675" height="375" xmlns="http://www.w3.org/2000/svg" xmlns:xlink="http://www.w3.org/1999/xlink" version="1.1"><path d="M0 253L11.3 234.7C22.7 216.3 45.3 179.7 67.8 196.8C90.3 214 112.7 285 135.2 321.3C157.7 357.7 180.3 359.3 202.8 337.7C225.3 316 247.7 271 270.2 263.2C292.7 255.3 315.3 284.7 337.8 283.3C360.3 282 382.7 250 405 223C427.3 196 449.7 174 472.2 169.7C494.7 165.3 517.3 178.7 540 208.2C562.7 237.7 585.3 283.3 607.8 305.2C630.3 327 652.7 325 663.8 324L675 323" fill="none" stroke-linecap="round" stroke-linejoin="miter" stroke="#DB8091" stroke-width="18"></path></svg>