<svg id="visual" viewBox="0 0 675 675" width="675" height="675" xmlns="http://www.w3.org/2000/svg" xmlns:xlink="http://www.w3.org/1999/xlink" version="1.1"><g><g transform="translate(503 456)"><path d="M26.7 -31.4C33.9 -25.9 38.4 -16.7 38.7 -7.9C39.1 1 35.2 9.6 30.7 18C26.1 26.4 20.9 34.7 13.6 37.3C6.3 40 -3 37 -11.8 33.4C-20.5 29.7 -28.6 25.5 -34 18.5C-39.4 11.5 -42.2 1.8 -40 -6.4C-37.8 -14.7 -30.7 -21.4 -23.2 -26.9C-15.8 -32.4 -7.9 -36.5 1 -37.7C9.8 -38.8 19.6 -36.9 26.7 -31.4Z" fill="none" stroke="#DB8091" stroke-width="12"></path></g><g transform="translate(247 284)"><path d="M21 -24.6C27.3 -19.7 32.6 -13.2 34.9 -5.4C37.1 2.4 36.5 11.5 32.7 19.7C29 27.8 22.1 35 14 37.6C5.8 40.2 -3.7 38.2 -12.7 34.9C-21.8 31.6 -30.4 27.1 -35.2 19.8C-40.1 12.5 -41.3 2.5 -39.1 -6.4C-37 -15.3 -31.4 -23.1 -24.3 -27.9C-17.2 -32.7 -8.6 -34.5 -0.6 -33.7C7.3 -33 14.7 -29.6 21 -24.6Z" stroke="#DB8091" fill="none" stroke-width="12"></path></g><g transform="translate(137 250)"><path d="M3.3 -4C4.4 -3.1 5.4 -2.1 5.7 -0.9C6.1 0.3 5.8 1.8 5.2 3C4.5 4.2 3.3 5.1 2.1 5.5C0.8 5.8 -0.5 5.5 -1.8 5C-3.1 4.5 -4.3 3.8 -4.9 2.8C-5.6 1.7 -5.8 0.3 -5.6 -0.9C-5.3 -2.2 -4.6 -3.4 -3.6 -4.4C-2.6 -5.3 -1.3 -6 -0.1 -5.9C1.1 -5.8 2.3 -4.9 3.3 -4Z" stroke="#DB8091" fill="none" stroke-width="12"></path></g><g transform="translate(74 483)"><path d="M22.4 -26.9C28.9 -21.2 34.1 -14 34.9 -6.6C35.7 0.9 32.2 8.7 27.7 15.6C23.2 22.4 17.8 28.3 10.7 31.9C3.6 35.6 -5.1 36.9 -12.5 34.3C-19.9 31.7 -25.9 25 -29.7 17.6C-33.4 10.1 -35 1.8 -34 -6.3C-32.9 -14.4 -29.1 -22.3 -23 -28.1C-16.9 -34 -8.4 -37.8 -0.3 -37.5C7.9 -37.2 15.8 -32.7 22.4 -26.9Z" stroke="#DB8091" fill="none" stroke-width="12"></path></g><g transform="translate(602 454)"><path d="M18.5 -22.5C23.5 -17.9 26.7 -11.6 27.6 -5C28.5 1.5 27.2 8.2 23.8 13.3C20.4 18.5 14.8 22 8.6 24.8C2.3 27.7 -4.7 29.9 -10.1 27.9C-15.5 25.8 -19.3 19.6 -22.9 13.3C-26.4 7 -29.6 0.6 -29.4 -6C-29.2 -12.6 -25.6 -19.4 -20.1 -23.9C-14.6 -28.3 -7.3 -30.6 -0.3 -30.2C6.8 -29.9 13.5 -27.1 18.5 -22.5Z" stroke="#DB8091" fill="none" stroke-width="12"></path></g><g transform="translate(153 8)"><path d="M12.1 -14.2C15.3 -11.7 17.4 -7.6 17.5 -3.6C17.6 0.4 15.8 4.3 13.8 8C11.7 11.8 9.3 15.5 5.8 17.3C2.3 19.1 -2.3 19 -6.1 17.4C-10 15.7 -13 12.5 -14.6 8.9C-16.2 5.2 -16.3 1.2 -15.7 -2.9C-15.2 -6.9 -13.9 -11 -11.2 -13.6C-8.4 -16.2 -4.2 -17.3 0.1 -17.4C4.4 -17.6 8.9 -16.7 12.1 -14.2Z" stroke="#DB8091" fill="none" stroke-width="12"></path></g><g transform="translate(288 66)"><path d="M14 -16.7C18.1 -13.3 21.3 -8.8 22 -4C22.6 0.7 20.7 5.8 17.7 9.6C14.8 13.4 10.7 15.9 6.3 17.6C1.9 19.3 -2.9 20.2 -7.5 19.2C-12 18.1 -16.4 15 -18.2 10.9C-20 6.9 -19.2 1.8 -18.3 -3.1C-17.3 -8 -16 -12.8 -12.9 -16.4C-9.9 -20 -4.9 -22.5 0 -22.5C5 -22.5 9.9 -20.1 14 -16.7Z" stroke="#DB8091" fill="none" stroke-width="12"></path></g><g transform="translate(496 15)"><path d="M12 -14.2C15.3 -11.5 17.6 -7.5 18.6 -3.1C19.5 1.3 19.2 6.1 17 9.8C14.9 13.6 10.9 16.3 6.7 17.3C2.6 18.3 -1.8 17.6 -6 16.2C-10.1 14.8 -14 12.6 -15.9 9.2C-17.8 5.9 -17.8 1.4 -16.6 -2.6C-15.5 -6.5 -13.4 -10 -10.4 -12.7C-7.5 -15.5 -3.7 -17.6 0.3 -18C4.3 -18.3 8.6 -16.9 12 -14.2Z" stroke="#DB8091" fill="none" stroke-width="12"></path></g><g transform="translate(579 181)"><path d="M24.1 -27.4C31.1 -22.8 36.5 -15.1 37.5 -7C38.4 1.1 34.8 9.6 30.2 17.2C25.5 24.7 19.7 31.4 12.2 34.7C4.7 38 -4.5 37.9 -12.7 34.9C-20.9 32 -28.1 26.2 -33.1 18.6C-38 11 -40.8 1.7 -38.7 -6.2C-36.6 -14.1 -29.6 -20.6 -22.4 -25.1C-15.1 -29.7 -7.6 -32.3 0.5 -32.9C8.5 -33.5 17.1 -32 24.1 -27.4Z" stroke="#DB8091" fill="none" stroke-width="12"></path></g><g transform="translate(360 353)"><path d="M9 -10.3C11.7 -8.4 14 -5.6 15.2 -2.2C16.4 1.2 16.4 5.3 14.6 8.4C12.8 11.5 9.2 13.5 5.6 14.4C2 15.3 -1.7 15.1 -5 13.9C-8.2 12.6 -11.1 10.3 -12.5 7.4C-14 4.5 -14.1 1 -13.4 -2.3C-12.7 -5.5 -11.2 -8.5 -8.8 -10.5C-6.4 -12.5 -3.2 -13.5 -0.1 -13.5C3.1 -13.4 6.2 -12.3 9 -10.3Z" stroke="#DB8091" fill="none" stroke-width="12"></path></g><g transform="translate(337 483)"><path d="M21.5 -25.1C27.6 -20.6 31.8 -13.5 33.1 -5.9C34.3 1.7 32.6 9.8 28.8 16.7C24.9 23.6 18.8 29.4 11.7 31.9C4.6 34.4 -3.7 33.6 -10.5 30.4C-17.3 27.2 -22.6 21.7 -26.7 15.2C-30.8 8.6 -33.6 1.1 -32.8 -6.2C-32 -13.5 -27.6 -20.6 -21.5 -25C-15.5 -29.4 -7.7 -31.2 0 -31.2C7.8 -31.2 15.5 -29.5 21.5 -25.1Z" stroke="#DB8091" fill="none" stroke-width="12"></path></g><g transform="translate(389 126)"><path d="M16.4 -20.1C20.6 -16.1 22.8 -10.2 23.8 -4.3C24.8 1.7 24.5 7.9 22.1 13.3C19.6 18.8 15 23.6 9.5 25.3C4 27 -2.4 25.6 -8.4 23.3C-14.5 21.1 -20.1 18 -23.7 13.1C-27.3 8.2 -28.8 1.4 -27.5 -4.7C-26.2 -10.7 -22.1 -16.1 -17.1 -20C-12 -23.9 -6 -26.2 0 -26.3C6.1 -26.3 12.2 -24.1 16.4 -20.1Z" stroke="#DB8091" fill="none" stroke-width="12"></path></g><g transform="translate(224 577)"><path d="M6.3 -7.2C8.1 -6.1 9.2 -4 9.6 -1.7C9.9 0.6 9.6 2.9 8.4 4.6C7.1 6.3 5.1 7.4 3 8.1C0.9 8.8 -1.3 9.3 -3.2 8.7C-5.1 8.1 -6.6 6.4 -7.5 4.5C-8.3 2.6 -8.4 0.6 -8.1 -1.4C-7.7 -3.4 -6.9 -5.4 -5.5 -6.5C-4.1 -7.7 -2.1 -8 0.1 -8.2C2.3 -8.3 4.6 -8.3 6.3 -7.2Z" stroke="#DB8091" fill="none" stroke-width="12"></path></g><g transform="translate(174 161)"><path d="M4.6 -5.3C5.9 -4.4 6.8 -2.9 7.1 -1.3C7.4 0.4 7 2.1 6.1 3.4C5.2 4.6 3.7 5.4 2.2 5.8C0.7 6.2 -0.8 6.3 -2.3 6C-3.9 5.6 -5.4 4.8 -6.1 3.5C-6.9 2.3 -6.9 0.5 -6.5 -1.1C-6.1 -2.6 -5.3 -4 -4.2 -4.9C-3 -5.8 -1.5 -6.1 0.1 -6.2C1.7 -6.3 3.3 -6.1 4.6 -5.3Z" stroke="#DB8091" fill="none" stroke-width="12"></path></g><g transform="translate(648 546)"><path d="M17.8 -21C23 -16.9 26.9 -11.2 28.6 -4.6C30.4 2 29.9 9.5 26.5 15.3C23.2 21.2 17 25.4 10.1 28.1C3.2 30.8 -4.4 31.9 -10.8 29.6C-17.2 27.3 -22.4 21.6 -26.2 15.1C-30 8.6 -32.3 1.2 -31.4 -5.7C-30.4 -12.7 -26.1 -19.3 -20.3 -23.3C-14.5 -27.3 -7.3 -28.6 -0.5 -28.1C6.3 -27.5 12.7 -25.1 17.8 -21Z" stroke="#DB8091" fill="none" stroke-width="12"></path></g><g transform="translate(570 276)"><path d="M6.5 -7.4C8.5 -6 10.5 -4.1 11 -1.8C11.5 0.4 10.6 3 9.2 5.3C7.9 7.6 6.1 9.7 3.9 10.3C1.7 11 -0.8 10.2 -3.4 9.2C-5.9 8.3 -8.3 7.3 -9.8 5.4C-11.3 3.4 -11.9 0.6 -11.5 -2.1C-11.1 -4.8 -9.7 -7.3 -7.6 -8.7C-5.5 -10.1 -2.8 -10.4 -0.3 -10.1C2.2 -9.7 4.4 -8.8 6.5 -7.4Z" stroke="#DB8091" fill="none" stroke-width="12"></path></g><g transform="translate(15 389)"><path d="M23.1 -26.5C30.4 -21.5 36.9 -14.6 39.2 -6.2C41.5 2.1 39.6 11.9 34.5 19.1C29.4 26.2 21.1 30.7 12.2 34.3C3.3 37.9 -6.2 40.5 -14.2 38C-22.2 35.5 -28.6 27.9 -32.1 19.6C-35.5 11.4 -35.9 2.5 -33.9 -5.5C-32 -13.5 -27.6 -20.7 -21.6 -25.9C-15.5 -31.2 -7.8 -34.6 0.1 -34.7C7.9 -34.8 15.9 -31.6 23.1 -26.5Z" stroke="#DB8091" fill="none" stroke-width="12"></path></g><g transform="translate(170 407)"><path d="M8.9 -10.6C11.1 -8.7 12.1 -5.5 12.8 -2.2C13.6 1.2 14 4.8 12.7 7.7C11.4 10.7 8.5 13 5.3 14C2.1 14.9 -1.5 14.4 -4.4 13C-7.3 11.5 -9.5 9.1 -11 6.4C-12.5 3.7 -13.3 0.6 -13.1 -2.6C-12.9 -5.8 -11.7 -9.2 -9.3 -11C-7 -12.9 -3.5 -13.2 -0.1 -13.1C3.3 -13 6.7 -12.5 8.9 -10.6Z" stroke="#DB8091" fill="none" stroke-width="12"></path></g><g transform="translate(381 609)"><path d="M12.4 -14.2C16 -11.8 18.6 -7.8 19.4 -3.4C20.3 1 19.3 5.8 16.9 9.8C14.6 13.7 11 16.9 6.6 18.8C2.3 20.6 -2.8 21.1 -7.3 19.7C-11.8 18.2 -15.8 14.8 -17.6 10.6C-19.4 6.5 -19 1.6 -17.9 -2.8C-16.7 -7.3 -14.7 -11.2 -11.6 -13.7C-8.5 -16.2 -4.2 -17.3 0.1 -17.4C4.4 -17.5 8.9 -16.7 12.4 -14.2Z" stroke="#DB8091" fill="none" stroke-width="12"></path></g><g transform="translate(119 655)"><path d="M3.7 -4.6C4.7 -3.6 5.3 -2.3 5.4 -1C5.6 0.3 5.4 1.7 4.8 2.7C4.1 3.7 3 4.4 1.8 4.8C0.5 5.3 -0.8 5.5 -2 5.2C-3.3 4.9 -4.5 4.1 -5.2 3C-5.8 1.8 -6 0.4 -5.7 -1C-5.5 -2.4 -4.9 -3.7 -3.9 -4.7C-2.8 -5.7 -1.4 -6.4 0 -6.3C1.4 -6.3 2.7 -5.6 3.7 -4.6Z" stroke="#DB8091" fill="none" stroke-width="12"></path></g><g transform="translate(40 170)"><path d="M14.5 -16.7C18.6 -13.9 21.6 -9.1 22.1 -4.2C22.5 0.7 20.5 5.7 17.6 9.6C14.7 13.6 10.9 16.5 6.7 17.7C2.5 19 -2.1 18.6 -6.1 17C-10.1 15.4 -13.6 12.6 -16.3 8.9C-19.1 5.2 -21.1 0.6 -20.5 -3.8C-19.9 -8.1 -16.7 -12.1 -12.9 -15C-9 -17.9 -4.5 -19.7 0.4 -20.1C5.2 -20.5 10.4 -19.6 14.5 -16.7Z" stroke="#DB8091" fill="none" stroke-width="12"></path></g><g transform="translate(46 289)"><path d="M13.1 -16.1C16.9 -12.3 20.1 -8.2 21.1 -3.6C22.1 1.1 20.9 6.2 18.6 11.3C16.3 16.3 12.9 21.2 8.1 23.5C3.2 25.9 -3 25.6 -8.6 23.6C-14.2 21.6 -19.1 17.7 -21.5 12.8C-23.8 7.9 -23.6 1.9 -22.2 -3.5C-20.7 -8.9 -18.1 -13.6 -14.2 -17.4C-10.3 -21.2 -5.2 -24.1 -0.3 -23.7C4.6 -23.4 9.2 -19.9 13.1 -16.1Z" stroke="#DB8091" fill="none" stroke-width="12"></path></g><g transform="translate(553 606)"><path d="M2.9 -3.7C3.6 -2.8 4.1 -1.8 4.3 -0.7C4.5 0.3 4.4 1.4 3.9 2.3C3.4 3.2 2.5 3.8 1.5 4.2C0.5 4.6 -0.7 4.8 -1.6 4.4C-2.6 4.1 -3.4 3.3 -3.9 2.3C-4.4 1.3 -4.6 0.3 -4.4 -0.8C-4.2 -1.8 -3.7 -2.8 -2.9 -3.7C-2.1 -4.5 -1.1 -5.2 0 -5.2C1.1 -5.2 2.1 -4.5 2.9 -3.7Z" stroke="#DB8091" fill="none" stroke-width="12"></path></g><g transform="translate(398 29)"><path d="M16.6 -19.4C21.2 -16 24.2 -10.4 25.8 -4.1C27.4 2.1 27.5 9.1 24.7 14.5C21.9 20 16 24 10 25.4C3.9 26.7 -2.4 25.4 -8.3 23.2C-14.2 20.9 -19.7 17.7 -22.8 12.9C-25.9 8.1 -26.6 1.6 -25.6 -4.6C-24.6 -10.9 -22 -17 -17.5 -20.4C-13 -23.7 -6.5 -24.3 -0.2 -24C6.1 -23.8 12.1 -22.7 16.6 -19.4Z" stroke="#DB8091" fill="none" stroke-width="12"></path></g><g transform="translate(654 664)"><path d="M22.2 -26.6C28 -21.6 31.3 -13.9 31.9 -6.3C32.5 1.3 30.3 8.8 26.2 14.5C22.1 20.2 16.2 24.3 9.5 27.1C2.8 30 -4.6 31.6 -10.8 29.5C-17 27.3 -22 21.4 -24.9 15C-27.8 8.6 -28.8 1.7 -27.5 -4.7C-26.3 -11.2 -22.8 -17.1 -17.8 -22.2C-12.8 -27.4 -6.4 -31.9 0.9 -32.9C8.2 -34 16.4 -31.7 22.2 -26.6Z" stroke="#DB8091" fill="none" stroke-width="12"></path></g><g transform="translate(41 589)"><path d="M13.6 -16C17.3 -13.1 19.9 -8.5 20.7 -3.7C21.4 1.1 20.4 6.1 17.8 10.1C15.3 14.1 11.3 17.1 6.7 18.9C2.2 20.8 -2.9 21.5 -7.7 20.2C-12.5 18.9 -16.9 15.6 -19.5 11.2C-22.1 6.8 -22.8 1.3 -21.7 -3.6C-20.5 -8.5 -17.5 -12.9 -13.6 -15.8C-9.7 -18.7 -4.8 -20.1 0 -20.2C4.9 -20.2 9.9 -18.9 13.6 -16Z" stroke="#DB8091" fill="none" stroke-width="12"></path></g><g transform="translate(296 170)"><path d="M21.2 -24.6C27.7 -19.9 33.4 -13.4 34.6 -6.1C35.8 1.1 32.6 9 27.8 14.9C23 20.7 16.6 24.5 9.6 27.5C2.6 30.4 -5.1 32.7 -12.2 31.1C-19.3 29.5 -25.9 24.1 -29.2 17.4C-32.6 10.6 -32.8 2.4 -30.6 -4.7C-28.5 -11.7 -24.1 -17.6 -18.6 -22.5C-13.1 -27.4 -6.6 -31.3 0.4 -31.7C7.4 -32.2 14.7 -29.3 21.2 -24.6Z" stroke="#DB8091" fill="none" stroke-width="12"></path></g><g transform="translate(473 175)"><path d="M11.4 -13.1C14.8 -10.7 17.5 -7.1 17.8 -3.4C18.2 0.3 16.1 4.2 13.9 8.1C11.7 11.9 9.4 15.8 6 17.4C2.6 19 -1.9 18.3 -5.5 16.5C-9.2 14.6 -11.9 11.5 -13.7 8.1C-15.5 4.6 -16.4 0.8 -16.2 -3.2C-15.9 -7.3 -14.5 -11.5 -11.7 -13.9C-8.8 -16.4 -4.4 -17 -0.2 -16.8C4 -16.5 8 -15.4 11.4 -13.1Z" stroke="#DB8091" fill="none" stroke-width="12"></path></g><g transform="translate(86 86)"><path d="M3.4 -4.1C4.3 -3.2 5 -2.1 5.2 -0.9C5.4 0.2 5 1.5 4.5 2.6C3.9 3.8 3 4.9 1.9 5.2C0.8 5.6 -0.5 5.3 -1.7 4.8C-2.8 4.2 -3.8 3.5 -4.4 2.5C-5 1.5 -5.1 0.3 -5 -1C-4.9 -2.3 -4.5 -3.6 -3.7 -4.5C-2.8 -5.4 -1.4 -5.9 -0.1 -5.8C1.2 -5.6 2.4 -5 3.4 -4.1Z" stroke="#DB8091" fill="none" stroke-width="12"></path></g><g transform="translate(673 346)"><path d="M11.6 -14.2C14.9 -11.1 17.2 -7.3 17.9 -3.2C18.6 0.9 17.6 5.3 15.4 8.8C13.2 12.3 9.8 14.9 5.9 16.6C1.9 18.2 -2.6 18.8 -6.4 17.5C-10.1 16.1 -13.2 12.7 -15.3 8.9C-17.4 5.1 -18.6 0.8 -17.9 -3.2C-17.3 -7.2 -14.8 -11 -11.5 -14C-8.2 -17.1 -4.1 -19.6 0 -19.6C4.2 -19.7 8.4 -17.3 11.6 -14.2Z" stroke="#DB8091" fill="none" stroke-width="12"></path></g><g transform="translate(428 277)"><path d="M11.6 -13.1C15.2 -10.7 18.5 -7.3 19.3 -3.3C20.1 0.7 18.4 5.1 15.9 8.9C13.4 12.7 10.2 15.8 6.2 17.4C2.3 18.9 -2.3 18.9 -6.8 17.7C-11.4 16.5 -15.9 14.1 -18.3 10.4C-20.8 6.6 -21.1 1.4 -20.1 -3.3C-19 -8.1 -16.5 -12.4 -12.9 -14.8C-9.3 -17.2 -4.7 -17.7 -0.3 -17.3C4 -16.9 7.9 -15.5 11.6 -13.1Z" stroke="#DB8091" fill="none" stroke-width="12"></path></g><g transform="translate(603 85)"><path d="M6.5 -7.6C8.2 -6.3 9.1 -4.1 9.6 -1.6C10.1 0.8 10.2 3.4 9.1 5.2C8 7.1 5.7 8.2 3.4 8.8C1.1 9.4 -1.2 9.5 -3.2 8.8C-5.3 8.1 -7.1 6.6 -8.3 4.7C-9.6 2.8 -10.2 0.4 -9.7 -1.6C-9.2 -3.6 -7.5 -5.3 -5.7 -6.5C-3.9 -7.8 -1.9 -8.7 0.2 -9C2.4 -9.3 4.8 -8.9 6.5 -7.6Z" stroke="#DB8091" fill="none" stroke-width="12"></path></g><g transform="translate(511 353)"><path d="M18.5 -22.3C23.5 -17.9 26.7 -11.6 27.2 -5.3C27.7 1 25.6 7.3 22.5 13.3C19.4 19.3 15.3 25 9.5 27.9C3.8 30.7 -3.7 30.7 -10.4 28.3C-17.1 26 -23.1 21.4 -26.5 15.4C-29.9 9.3 -30.8 1.9 -29 -4.5C-27.2 -11 -22.7 -16.3 -17.4 -20.7C-12.2 -25.1 -6.1 -28.5 0.3 -28.9C6.8 -29.3 13.5 -26.7 18.5 -22.3Z" stroke="#DB8091" fill="none" stroke-width="12"></path></g><g transform="translate(297 670)"><path d="M12.4 -14.1C15.8 -11.9 18.2 -7.8 18.6 -3.5C19.1 0.7 17.6 5 15.2 8.3C12.8 11.7 9.3 14 5.7 15.1C2 16.2 -1.9 16.1 -6 15.2C-10.1 14.3 -14.4 12.5 -16.9 9.3C-19.3 6 -19.9 1.2 -18.9 -3.2C-18 -7.5 -15.4 -11.4 -12 -13.6C-8.5 -15.9 -4.3 -16.4 0.1 -16.6C4.5 -16.7 9 -16.4 12.4 -14.1Z" stroke="#DB8091" fill="none" stroke-width="12"></path></g><g transform="translate(271 400)"><path d="M4.4 -5.4C5.5 -4.3 6.1 -2.7 6.3 -1.2C6.5 0.4 6.4 2 5.7 3.3C5 4.7 3.7 5.7 2.3 6.3C0.8 6.8 -0.8 6.9 -2.3 6.4C-3.8 5.8 -5.1 4.8 -5.7 3.4C-6.4 2.1 -6.4 0.5 -6.1 -1.1C-5.9 -2.7 -5.3 -4.2 -4.3 -5.3C-3.2 -6.4 -1.6 -7 0 -7C1.6 -7 3.3 -6.5 4.4 -5.4Z" stroke="#DB8091" fill="none" stroke-width="12"></path></g><g transform="translate(666 252)"><path d="M14.9 -18.1C18.4 -14.8 19.7 -9.3 20.6 -3.7C21.4 1.8 21.8 7.3 19.7 11.8C17.6 16.3 13 19.7 8 21.1C3.1 22.5 -2.3 21.7 -6.6 19.5C-11 17.4 -14.3 13.8 -16.8 9.6C-19.3 5.4 -21.1 0.7 -20.5 -3.8C-19.9 -8.3 -17 -12.6 -13.3 -15.8C-9.5 -19 -4.7 -21.1 0.5 -21.7C5.7 -22.3 11.4 -21.3 14.9 -18.1Z" stroke="#DB8091" fill="none" stroke-width="12"></path></g><g transform="translate(451 672)"><path d="M10.9 -12.5C13.9 -10.5 15.9 -6.8 16.6 -2.9C17.4 1 16.8 5.2 14.7 8.1C12.5 10.9 8.8 12.5 5.2 13.6C1.5 14.7 -2.2 15.3 -5.2 14.2C-8.2 13.1 -10.6 10.3 -12.1 7.2C-13.6 4.1 -14.3 0.7 -14 -2.7C-13.6 -6 -12.2 -9.4 -9.7 -11.5C-7.2 -13.6 -3.6 -14.4 0.2 -14.7C4 -14.9 7.9 -14.5 10.9 -12.5Z" stroke="#DB8091" fill="none" stroke-width="12"></path></g><g transform="translate(14 24)"><path d="M23.1 -27.6C29.6 -22.1 34.2 -14.5 35.2 -6.5C36.2 1.4 33.6 9.6 29.2 16.4C24.7 23.2 18.5 28.4 11.4 30.7C4.4 33 -3.6 32.2 -11.5 30C-19.5 27.8 -27.5 24.1 -32.2 17.7C-36.9 11.3 -38.2 2.2 -35.7 -5.2C-33.1 -12.7 -26.6 -18.3 -20 -23.7C-13.4 -29.1 -6.7 -34.2 0.8 -35.2C8.3 -36.1 16.7 -33 23.1 -27.6Z" stroke="#DB8091" fill="none" stroke-width="12"></path></g><g transform="translate(443 536)"><path d="M9.9 -11.9C12.5 -9.6 14.1 -6.2 14.3 -2.8C14.6 0.6 13.6 3.9 11.9 7C10.3 10 8 12.7 4.8 14.3C1.7 15.9 -2.2 16.4 -5.8 15.4C-9.4 14.4 -12.7 11.8 -14.2 8.5C-15.8 5.3 -15.5 1.3 -14.8 -2.6C-14.1 -6.4 -12.9 -10.2 -10.3 -12.5C-7.8 -14.8 -3.9 -15.6 -0.1 -15.5C3.6 -15.3 7.3 -14.1 9.9 -11.9Z" stroke="#DB8091" fill="none" stroke-width="12"></path></g><g transform="translate(661 5)"><path d="M21.5 -23.9C28.3 -19.8 34.8 -13.5 35.9 -6.5C37 0.6 32.8 8.5 28.2 16C23.5 23.5 18.6 30.5 11.5 34.3C4.4 38 -4.9 38.4 -12.2 35.1C-19.6 31.8 -25.1 24.7 -29 17.1C-32.9 9.5 -35.3 1.5 -33.9 -5.9C-32.6 -13.3 -27.5 -20 -21.2 -24.2C-14.9 -28.4 -7.5 -30.1 -0.1 -30C7.3 -29.9 14.6 -28 21.5 -23.9Z" stroke="#DB8091" fill="none" stroke-width="12"></path></g></g></svg>